<?xml version="1.0" encoding="utf-8"?>
<!-- Generator: Adobe Illustrator 28.1.0, SVG Export Plug-In . SVG Version: 6.00 Build 0)  -->
<svg version="1.1" id="Layer_1" xmlns="http://www.w3.org/2000/svg" xmlns:xlink="http://www.w3.org/1999/xlink" x="0px" y="0px"
	 viewBox="0 0 963.2 155.1" style="enable-background:new 0 0 963.2 155.1;" xml:space="preserve">
<style type="text/css">
	.st0{fill:#00254A;}
	.st1{clip-path:url(#SVGID_00000158740994820297918430000012291681595678823592_);fill:#00254A;}
	.st2{clip-path:url(#SVGID_00000158740994820297918430000012291681595678823592_);fill:#00ACED;}
</style>
<polygon class="st0" points="325.8,90.8 345.4,2.1 372.2,2.1 352.7,90.8 "/>
<g>
	<defs>
		<rect id="SVGID_1_" width="963.2" height="155.1"/>
	</defs>
	<clipPath id="SVGID_00000101790384388852871990000008745207571457965238_">
		<use xlink:href="#SVGID_1_"  style="overflow:visible;"/>
	</clipPath>
	<path style="clip-path:url(#SVGID_00000101790384388852871990000008745207571457965238_);fill:#00254A;" d="M669.8,51.1
		c0-28.3,22.5-51.1,53.3-51.1c26.2,0,46.2,16.5,46.2,40.4c0,28.3-22.3,51.3-53.2,51.3C689.7,91.8,669.8,75.1,669.8,51.1 M741.4,42.6
		c0-10.9-8-18.9-19.9-18.9c-14.1,0-23.9,12-23.9,25.5c0,10.9,8,18.9,20,18.9C731.6,68.1,741.4,56.1,741.4,42.6"/>
	<path style="clip-path:url(#SVGID_00000101790384388852871990000008745207571457965238_);fill:#00254A;" d="M317.5,90.8L304.3,2.1
		H264l-52.3,88.7H317.5z M278.8,33.5l3,34.2h-21L278.8,33.5z"/>
	<polygon style="clip-path:url(#SVGID_00000101790384388852871990000008745207571457965238_);fill:#00254A;" points="913.7,90.8 
		900,58.8 893,66.2 887.5,90.8 860.6,90.8 880.2,2.1 907.1,2.1 900.1,33.5 929,2.1 963.2,2.1 920.6,43.4 945.1,90.8 	"/>
	<path style="clip-path:url(#SVGID_00000101790384388852871990000008745207571457965238_);fill:#00254A;" d="M94.3,62
		c-12.6,6.2-26.7,21.9-26.7,21.9c15.7-30.2,27.1-41.2,38.1-49.6c11-8.4,23.9-13.2,42.7-17.8c18.8-4.6,48.8-15.9,48.8-15.9
		c-6.2-0.6-43.8,1.6-62.4,4.6c-15.1,2.4-24.9,4.1-37.3,10.7c-12.4,6.5-22.4,17-26.5,21.9S59.5,54.3,57.1,58.4
		c-2.4,4.1-26.2,43.9-28.3,47.7C26.7,110,0,154.4,0,154.4l0,0h38.2c17.5-12.1,39.5-27.6,43.5-30.3c6.7-4.6,12.3-5.6,16.9-7.1
		c4.6-1.5,18.1-2.7,28.5-4.9c10.4-2.2,12.9-4.4,12.9-4.4c-6.2-4.1-28.9-7.2-34.7-7.4c-21.5-0.7-27.4,4.4-26.7,3.6
		c0.7-0.9,3.9-4.6,14.8-15.9c11-11.3,15.7-12,20.6-14.5c4.9-2.5,11.3-3.4,30.5-8.3s21.3-7.1,21.3-7.1c-8.6-1.8-23-2.2-34.8-2.8
		C119.2,54.6,106.9,55.8,94.3,62"/>
	<path style="clip-path:url(#SVGID_00000101790384388852871990000008745207571457965238_);fill:#00254A;" d="M415.4,90.7l-6-28.5
		h-10.8l-6.2,28.5h-26.9L385.1,2h43.1C444.3,2,458,12.5,458,28.9c0,15.7-10.2,27.8-21.8,31.9l8.8,29.9H415.4z M419.3,39.9
		c6.5,0,10.9-2.9,10.9-8.4c0-4.4-3.1-7.2-7.8-7.2H407l-3.5,15.6H419.3z"/>
	<path style="clip-path:url(#SVGID_00000101790384388852871990000008745207571457965238_);fill:#00254A;" d="M453.4,90.7l5.2-24.3
		c39.4-20.5,52.5-27.3,52.5-35.4c0-4.3-5.5-6.9-12.8-6.9c-9.4,0-16.4,3.6-21.5,7.3l-10.6-19.4c8.9-7.2,21.9-11.3,34.3-11.3
		C521.2,0.6,539,11,539,28.9c0,14.9-10.8,26.9-39.5,38.3h31.5l-5.2,23.4H453.4z"/>
	<polygon style="clip-path:url(#SVGID_00000101790384388852871990000008745207571457965238_);fill:#00254A;" points="603.8,90.7 
		603.4,40.5 580.9,90.7 552.7,90.7 546.8,2 576.2,2 575.7,56.3 601.1,2 621.3,2 622.8,56.3 646.1,2 676.9,2 632,90.7 	"/>
	<path style="clip-path:url(#SVGID_00000101790384388852871990000008745207571457965238_);fill:#00254A;" d="M820.5,90.8l-6-28.5
		h-10.8l-6.2,28.5h-26.9l19.5-88.7h43.1c16.1,0,29.8,10.5,29.8,26.9c0,15.7-10.2,27.8-21.8,31.9l8.8,29.9H820.5z M824.4,40
		c6.5,0,10.9-2.9,10.9-8.4c0-4.4-3.1-7.2-7.8-7.2h-15.3L808.7,40H824.4z"/>
	<path style="clip-path:url(#SVGID_00000101790384388852871990000008745207571457965238_);fill:#00ACED;" d="M245.2,154.4l-1.9-9.9
		h-21.5l-6.2,9.9h-4.1l25.4-40.4h4.3l7.6,40.4H245.2z M238.5,117.4l-14.9,23.8h19.2L238.5,117.4z"/>
	<path style="clip-path:url(#SVGID_00000101790384388852871990000008745207571457965238_);fill:#00ACED;" d="M276.3,114
		c9,0,16.4,7.2,16.4,17.2c0,11.1-8.2,23.2-25.1,23.2h-12.8l8.9-40.4H276.3z M268.2,151.2c12.8,0,20.8-9.2,20.8-19.9
		c0-8.2-5.7-14.2-13.4-14.2h-9.1l-7.6,34.1H268.2z"/>
	<path style="clip-path:url(#SVGID_00000101790384388852871990000008745207571457965238_);fill:#00ACED;" d="M318.2,114
		c9,0,16.4,7.2,16.4,17.2c0,11.1-8.2,23.2-25.1,23.2h-12.8l8.9-40.4H318.2z M310.1,151.2c12.8,0,20.8-9.2,20.8-19.9
		c0-8.2-5.7-14.2-13.4-14.2h-9.1l-7.6,34.1H310.1z"/>
	<polygon style="clip-path:url(#SVGID_00000101790384388852871990000008745207571457965238_);fill:#00ACED;" points="338.6,154.4 
		347.5,114 350.9,114 342,154.4 	"/>
	<polygon style="clip-path:url(#SVGID_00000101790384388852871990000008745207571457965238_);fill:#00ACED;" points="380.9,154.4 
		363.4,118.8 355.5,154.4 352.1,154.4 361,114 364.5,114 381.9,149 389.8,114 393.2,114 384.3,154.4 	"/>
	<path style="clip-path:url(#SVGID_00000101790384388852871990000008745207571457965238_);fill:#00ACED;" d="M419.2,113.3
		c7.2,0,12.6,3.3,15.6,8.3l-3.1,1.6c-2.5-4.5-7.4-6.7-12.9-6.7c-9.5,0-18.4,8.7-18.4,21c0,8.8,5.7,14.5,14.6,14.5
		c5.1,0,9-2.3,11.7-4.8l2.1-9.7h-15.3l0.7-3.1H433l-3.2,14.4c-4.2,4.1-9.3,6.4-15,6.4c-11,0-18.2-7.3-18.2-17.5
		C396.7,123.5,407.1,113.3,419.2,113.3"/>
	<polygon style="clip-path:url(#SVGID_00000101790384388852871990000008745207571457965238_);fill:#00ACED;" points="481.9,154.4 
		464.4,118.8 456.5,154.4 453.1,154.4 462,114 465.5,114 483,149 490.8,114 494.2,114 485.3,154.4 	"/>
	<polygon style="clip-path:url(#SVGID_00000101790384388852871990000008745207571457965238_);fill:#00ACED;" points="495.4,154.4 
		504.3,114 529.9,114 529.2,117.1 507,117.1 503.8,132.1 525.4,132.1 524.7,135.2 503.1,135.2 499.5,151.2 521.6,151.2 521,154.4 	
		"/>
	<polygon style="clip-path:url(#SVGID_00000101790384388852871990000008745207571457965238_);fill:#00ACED;" points="560.4,154.4 
		558.4,119.7 541.1,154.4 537.2,154.4 534.5,114 538.3,114 540.2,149.5 557.9,114 561.1,114 563.1,149.5 580.7,114 584.7,114 
		564.3,154.4 	"/>
	<polygon style="clip-path:url(#SVGID_00000101790384388852871990000008745207571457965238_);fill:#00ACED;" points="628.6,154.4 
		626.5,119.7 609.2,154.4 605.3,154.4 602.7,114 606.5,114 608.3,149.5 626.1,114 629.2,114 631.3,149.5 648.8,114 652.8,114 
		632.4,154.4 	"/>
	<path style="clip-path:url(#SVGID_00000101790384388852871990000008745207571457965238_);fill:#00ACED;" d="M677.1,154.4l-1.9-9.9
		h-21.5l-6.2,9.9h-4.1l25.4-40.4h4.3l7.6,40.4H677.1z M670.4,117.4l-14.9,23.8h19.2L670.4,117.4z"/>
	<polygon style="clip-path:url(#SVGID_00000101790384388852871990000008745207571457965238_);fill:#00ACED;" points="694.5,154.4 
		698.3,137.1 687.3,114 691.2,114 700.5,133.8 718.4,114 722.9,114 701.8,137.1 698,154.4 	"/>
	<path style="clip-path:url(#SVGID_00000101790384388852871990000008745207571457965238_);fill:#00ACED;" d="M721.6,145.5
		c2.8,3.9,7.4,6.4,13.2,6.4c7.2,0,10.2-4.8,10.2-8.8c0-4.2-4.4-6.1-9.1-8c-5.4-2.2-11.1-4.5-11.1-10.5c0-6.1,5.9-11.3,13.6-11.3
		c6.2,0,11.4,2.5,13.9,6.3l-2.6,2.4c-2.5-3.8-7.1-5.6-11.6-5.6c-5.3,0-9.6,3.8-9.6,7.7c0,3.7,4.2,5.5,8.8,7.4
		c5.4,2.3,11.4,4.8,11.4,11.1c0,6.1-4.9,12.3-14.3,12.3c-6.9,0-13-3.1-15.4-7.1L721.6,145.5z"/>
</g>
</svg>
